<svg
  xmlns="http://www.w3.org/2000/svg"
  width="512"
  height="512"
  viewBox="0 0 512 512"
>
  <title>FieldAssist flow waves</title>
  <defs>
    <linearGradient
      id="waveFlow"
      x1="-80"
      y1="358"
      x2="592"
      y2="150"
      gradientUnits="userSpaceOnUse"
    >
      <stop offset="0%" stop-color="#3a3a3a" />
      <stop offset="55%" stop-color="#7a7a7a" />
      <stop offset="100%" stop-color="#f2f2f2" />
    </linearGradient>
    <clipPath id="inner">
      <circle cx="256" cy="256" r="213.33" />
    </clipPath>
  </defs>
  <circle cx="256" cy="256" r="213.33" fill="#111111" />
  <g
    fill="none"
    stroke="url(#waveFlow)"
    stroke-width="32"
    stroke-linecap="round"
    stroke-linejoin="round"
    clip-path="url(#inner)"
  >
    <path
      d="M -80 358
         C -53.33 338 -26.67 338 0 358
         C 26.67 378 53.33 378 80 358
         C 106.67 338 133.33 338 160 358
         C 186.67 378 213.33 378 240 358
         C 266.67 338 293.33 338 320 358
         C 346.67 378 373.33 378 400 358
         C 426.67 338 453.33 338 480 358
         C 506.67 378 533.33 378 560 358"
    />
    <path
      d="M -80 320
         C -61.33 279.28 -42.67 274.56 -24 305.83
         C -5.33 337.11 13.33 332.39 32 291.67
         C 50.67 250.94 69.33 246.22 88 277.5
         C 106.67 308.78 125.33 304.06 144 263.33
         C 162.67 222.61 181.33 217.89 200 249.17
         C 218.67 280.44 237.33 275.72 256 235
         C 274.67 194.28 293.33 189.56 312 220.83
         C 330.67 252.11 349.33 247.39 368 206.67
         C 386.67 165.94 405.33 161.22 424 192.5
         C 442.67 223.78 461.33 219.06 480 178.33
         C 498.67 137.61 517.33 132.89 536 164.17
         C 554.67 195.44 573.33 190.72 592 150"
    />
  </g>
  <circle
    cx="256"
    cy="256"
    r="213.33"
    fill="none"
    stroke="#111111"
    stroke-width="32"
  />
</svg>
